<svg width="20" height="20" viewBox="0 0 20 20" fill="none" xmlns="http://www.w3.org/2000/svg">
<path d="M17.513 8.53553C17.0172 7.70886 16.1755 6.56885 14.9914 5.59551L16.9589 3.62802C17.1214 3.46552 17.1214 3.20135 16.9589 3.03885C16.7964 2.87635 16.5322 2.87635 16.3697 3.03885L11.7597 7.64886L11.758 7.64968L11.7572 7.65052L3.03554 16.3722C2.87304 16.5347 2.87304 16.7989 3.03554 16.9614C3.11721 17.043 3.22388 17.083 3.33054 17.083C3.43721 17.083 3.54388 17.0422 3.62555 16.9614L5.67137 14.9155C6.99553 15.7972 8.44803 16.2505 9.9997 16.2505C14.0197 16.2505 16.4322 13.253 17.5139 11.4647C18.0539 10.5613 18.0539 9.43886 17.513 8.53553ZM12.498 10.0005C12.498 11.3789 11.3764 12.5005 9.99802 12.5005C9.46969 12.5005 8.9722 12.333 8.55553 12.0322L12.0297 8.55803C12.3297 8.9747 12.498 9.47219 12.498 10.0005ZM16.7997 11.0347C15.8097 12.6714 13.6105 15.4172 9.9997 15.4172C8.67387 15.4172 7.43053 15.0288 6.2847 14.303L7.96637 12.6213C8.5447 13.0755 9.24636 13.3339 9.99802 13.3339C11.8364 13.3339 13.3314 11.8389 13.3314 10.0005C13.3314 9.24885 13.0722 8.5472 12.6189 7.96886L14.4022 6.18552C15.5305 7.09469 16.3289 8.18053 16.7989 8.96386C17.1805 9.60303 17.1805 10.3972 16.7997 11.0347ZM3.59971 13.0189C3.19137 12.5355 2.81721 12.0122 2.48638 11.4655C1.94638 10.5614 1.94637 9.4397 2.48554 8.53636C3.5672 6.74803 5.9797 3.74968 9.9997 3.74968C10.7755 3.74968 11.5264 3.86219 12.2939 4.09219C12.5139 4.15886 12.6389 4.39051 12.573 4.61135C12.5064 4.83135 12.278 4.95636 12.0539 4.89053C11.3647 4.68303 10.693 4.58302 9.9997 4.58302C6.38887 4.58302 4.1897 7.32885 3.1997 8.96552C2.81887 9.60302 2.81887 10.3972 3.20054 11.0364C3.5072 11.5447 3.85637 12.0314 4.23554 12.4805C4.38387 12.6564 4.36219 12.9197 4.18636 13.068C4.10802 13.1347 4.01303 13.1664 3.91803 13.1664C3.7997 13.1672 3.68221 13.1172 3.59971 13.0189ZM9.47638 6.71302C9.70304 6.67802 9.91636 6.83468 9.95136 7.06135C9.98636 7.28885 9.83052 7.50135 9.60302 7.53635C8.54802 7.69885 7.6972 8.54968 7.5347 9.60468C7.50303 9.81052 7.32554 9.95803 7.12304 9.95803C7.1022 9.95803 7.08054 9.95635 7.05888 9.95302C6.83138 9.91802 6.67554 9.70551 6.71054 9.47801C6.92804 8.06801 8.06554 6.93135 9.47638 6.71302Z" fill="#B9B9B9"/>
</svg>
