<svg width="20" height="20" viewBox="0 0 20 20" fill="none" xmlns="http://www.w3.org/2000/svg">
<path d="M17.5122 8.53708C16.4389 6.74874 14.0355 3.74958 9.99968 3.74958C5.96468 3.74958 3.5605 6.74874 2.48717 8.53708C1.94633 9.43958 1.94633 10.5604 2.48717 11.4629C3.56133 13.2513 5.96468 16.2504 9.99968 16.2504C14.0355 16.2504 16.4389 13.2513 17.5122 11.4629C18.0539 10.5604 18.0539 9.43958 17.5122 8.53708ZM16.798 11.0337C15.8155 12.6704 13.6255 15.4162 9.99968 15.4162C6.37468 15.4162 4.18469 12.6704 3.20136 11.0337C2.81886 10.3962 2.81886 9.60375 3.20136 8.96626C4.18469 7.32959 6.37468 4.58375 9.99968 4.58375C13.6255 4.58375 15.8155 7.32959 16.798 8.96626C17.1805 9.60375 17.1805 10.3962 16.798 11.0337ZM9.99968 6.66709C8.16135 6.66709 6.66635 8.16209 6.66635 10.0004C6.66635 11.8388 8.16135 13.3338 9.99968 13.3338C11.838 13.3338 13.333 11.8388 13.333 10.0004C13.333 8.16209 11.838 6.66709 9.99968 6.66709ZM9.99968 12.5004C8.62135 12.5004 7.49968 11.3788 7.49968 10.0004C7.49968 8.62209 8.62135 7.50042 9.99968 7.50042C11.378 7.50042 12.4997 8.62209 12.4997 10.0004C12.4997 11.3788 11.378 12.5004 9.99968 12.5004Z" fill="#333232"/>
</svg>
